<?xml version="1.0" standalone="no"?><!DOCTYPE svg PUBLIC "-//W3C//DTD SVG 1.1//EN" "http://www.w3.org/Graphics/SVG/1.1/DTD/svg11.dtd"><svg t="1628946379933" class="icon" viewBox="0 0 1024 1024" version="1.1" xmlns="http://www.w3.org/2000/svg" p-id="2030" xmlns:xlink="http://www.w3.org/1999/xlink" width="200" height="200"><defs><style type="text/css"></style></defs><path d="M613.043 776.636c-5.922 23.071-35.408 73.53-82.167 141.14 12.831 3.33 25.292 6.415 37.63 8.636 22.576 4.318 45.647 7.525 68.101 11.227 7.526 1.603 11.227-1.604 15.052-6.91 45.648-68.102 82.66-140.522 113.133-216.273 12.338-29.486 22.578-60.083 33.805-89.57 0.987-3.33 2.097-5.921 3.824-9.746 24.675 8.636 48.363 16.656 73.53 25.292-4.317 12.83-8.635 25.785-12.83 37.629-37.629 104.127-84.264 203.813-146.444 296.22-5.429 7.525-11.227 15.051-16.162 22.577-11.844 17.642-27.883 23.07-48.856 20.973-79.33-7.525-156.191-25.785-230.709-53.667-135.217-51.2-252.175-129.049-344.458-241.689-11.227-13.324-14.559-28.376-6.91-44.044 6.91-15.052 20.48-21.96 36.52-22.578 70.199-1.233 138.3-15.051 203.812-39.85 59.59-22.576 113.134-53.667 155.08-102.4 11.845-14.557 21.961-30.472 33.312-46.14 21.467 12.337 43.55 24.674 67.608 38.122-12.337 18.259-23.564 36.518-37.135 53.05-32.2 40.713-72.914 71.927-118.069 96.602-68.102 37.629-141.139 59.589-217.877 71.926-1.604 0-3.331 0.494-6.416 0.987 10.734 10.24 20.48 19.247 29.98 27.39 18.753 15.544 38.123 30.473 57.862 44.537 3.825 2.714 10.734 3.825 15.052 2.714 39.233-9.13 75.01-24.674 105.237-52.557-2.59 13.941-27.388 48.363-62.18 87.472 21.96 10.734 44.045 20.48 64.401 32.694 26.896 15.545 52.064 11.227 78.342 0 44.045-19.246 82.167-47.869 118.069-78.836 7.526-3.7 12.954-9.13 19.863-14.928zM899.64 575.414a1093143.06 1093143.06 0 0 1-370.738-165.32c10.24-23.565 26.279-41.824 48.363-54.778 36.518-21.467 74.024-23.565 112.64-6.91 49.349 21.468 99.315 43.552 148.171 66.006 57.369 26.895 84.758 86.978 67.115 146.444-1.85 4.318-3.948 9.13-5.551 14.558zM844.368 359.14a11915.807 11915.807 0 0 1-115.97-51.447c-1.111-0.493-1.605-1.11-2.592-2.097 1.604-2.714 2.591-5.922 4.318-8.636 48.363-90.803 96.602-180.866 144.964-271.668 8.02-15.052 17.643-19.864 34.792-17.15 16.161 2.098 29.486 9.13 39.726 21.468 6.909 8.019 8.636 17.149 4.811 27.882A131978.928 131978.928 0 0 1 846.59 354.699l-2.22 4.441z m0 0" fill="#cdcdcd" p-id="2031"></path></svg>