<?xml version="1.0" standalone="no"?><!DOCTYPE svg PUBLIC "-//W3C//DTD SVG 1.1//EN" "http://www.w3.org/Graphics/SVG/1.1/DTD/svg11.dtd"><svg t="1627140840234" class="icon" viewBox="0 0 1024 1024" version="1.1" xmlns="http://www.w3.org/2000/svg" p-id="7913" xmlns:xlink="http://www.w3.org/1999/xlink" width="200" height="200"><defs><style type="text/css">@font-face { font-family: feedback-iconfont; src: url("//at.alicdn.com/t/font_1031158_1uhr8ri0pk5.eot?#iefix") format("embedded-opentype"), url("//at.alicdn.com/t/font_1031158_1uhr8ri0pk5.woff2") format("woff2"), url("//at.alicdn.com/t/font_1031158_1uhr8ri0pk5.woff") format("woff"), url("//at.alicdn.com/t/font_1031158_1uhr8ri0pk5.ttf") format("truetype"), url("//at.alicdn.com/t/font_1031158_1uhr8ri0pk5.svg#iconfont") format("svg"); }
</style></defs><path d="M512 1016C233.6 1016 8 790.4 8 512S233.6 8 512 8s504 225.6 504 504-225.6 504-504 504z m0-960C260.8 56 56 260.8 56 512s204.8 456 456 456 456-204.8 456-456S763.2 56 512 56z" p-id="7914" fill="#bfbfbf"></path><path d="M548.8 512L744 316.8c9.6-9.6 9.6-25.6 0-36.8l-1.6-1.6c-9.6-9.6-25.6-9.6-35.2 0L512 475.2 316.8 280c-9.6-9.6-25.6-9.6-35.2 0l-1.6 1.6c-9.6 9.6-9.6 25.6 0 36.8L475.2 512 280 707.2c-9.6 9.6-9.6 25.6 0 36.8l1.6 1.6c9.6 9.6 25.6 9.6 35.2 0L512 548.8 707.2 744c9.6 9.6 25.6 9.6 35.2 0l1.6-1.6c9.6-9.6 9.6-25.6 0-36.8L548.8 512z" p-id="7915" fill="#bfbfbf"></path></svg>