<?xml version="1.0" standalone="no"?><!DOCTYPE svg PUBLIC "-//W3C//DTD SVG 1.1//EN" "http://www.w3.org/Graphics/SVG/1.1/DTD/svg11.dtd"><svg t="1628952153242" class="icon" viewBox="0 0 1024 1024" version="1.1" xmlns="http://www.w3.org/2000/svg" p-id="2711" xmlns:xlink="http://www.w3.org/1999/xlink" width="200" height="200"><defs><style type="text/css"></style></defs><path d="M924.34432 615.97696c-100.97664 136.50432-248.73472 222.81216-413.71648 222.81216-164.9664 0-312.72448-86.30784-413.71648-222.81216-44.59008-60.2624-44.59008-149.83168 0-210.10944C197.90336 269.3632 345.66144 183.06048 510.62784 183.06048c164.98176 0 312.73984 86.30784 413.71648 222.81216 44.59008 60.27264 44.59008 149.84192 0 210.10432z m-32.8704-164.39808c-96.43008-141.20448-235.22816-222.1824-380.78976-222.1824S226.3296 310.36928 129.89952 451.57888c-22.97856 33.64352-22.97856 82.47296 0 116.11648 96.43008 141.2096 235.22816 222.20288 380.78976 222.20288s284.35456-80.99328 380.78976-222.21824c22.97344-33.62816 22.97344-82.4576-0.00512-116.10112zM510.9248 719.47264c-115.2768 0-208.72192-93.45024-208.72192-208.72192S395.65312 302.0288 510.9248 302.0288s208.72192 93.45024 208.72192 208.72192-93.44512 208.72192-208.72192 208.72192z m0.2048-367.09888c-87.58272 0-158.58176 70.99904-158.58176 158.58176s70.99904 158.58176 158.58176 158.58176c87.58272 0 158.58176-70.99904 158.58176-158.58176S598.71232 352.37376 511.1296 352.37376z" fill="#bfbfbf" p-id="2712"></path></svg>