<?xml version="1.0" standalone="no"?><!DOCTYPE svg PUBLIC "-//W3C//DTD SVG 1.1//EN" "http://www.w3.org/Graphics/SVG/1.1/DTD/svg11.dtd"><svg t="1626790903917" class="icon" viewBox="0 0 1024 1024" version="1.1" xmlns="http://www.w3.org/2000/svg" p-id="1573" xmlns:xlink="http://www.w3.org/1999/xlink" width="200" height="200"><defs><style type="text/css"></style></defs><path d="M239.764248 187.9618a671.985495 671.985495 0 0 0 3.088574 97.951923c0 5.294699 7.059598 5.735923 11.030622 4.853474A1199.690453 1199.690453 0 0 1 485.967732 247.527159c46.769837-3.529799 122.660517 11.913072 166.34178-3.088575 67.066182-22.943694 22.502469-108.100096 12.795522-156.634833 0-5.735923-6.618373-5.294699-11.030622-4.853473-35.739215 4.412249-104.129072 25.591043-135.456039 0-14.560421-11.913072-17.20777-44.122488-35.739215-60.889034a88.244976 88.244976 0 0 0-88.244977-15.442871A110.30622 110.30622 0 0 0 343.89332 44.122488c-11.471847 16.766546-7.942048 26.032268-15.001646 44.122488C309.477779 132.367464 293.152459 132.367464 252.118545 151.340134c-14.560421 6.177148-32.209416 40.151464-6.177149 28.679618A296.944345 296.944345 0 0 0 350.952918 127.955216c11.471847-14.119196 6.618373-20.737569 16.325321-37.06289 76.773129-132.367464 81.626603-12.354297 117.807043 25.591043 17.648995 18.531445 37.504115 11.471847 63.095158 8.383273 32.209416-3.971024 60.447809-17.648995 85.156402 11.913071a183.990776 183.990776 0 0 1 14.119197 69.272307q0 23.826144 11.471847 7.059598h-30.003292a419.163638 419.163638 0 0 0-88.244977 0 1194.836979 1194.836979 0 0 0-153.105034 18.09022c-19.413895 3.529799-73.24333 26.473493-88.244976 19.85512-33.091866-15.001646-22.061244-56.476785-21.178794-84.715178 0-13.677971-36.621665 6.618373-37.06289 21.62002z" p-id="1574" fill="#2c2c2c"></path><path d="M380.95621 105.011522c0 2.206124-2.647349 7.500823 0 10.148172a11.030622 11.030622 0 0 0 11.030622 4.853474 35.297991 35.297991 0 0 0 30.003292-23.384919 17.648995 17.648995 0 0 0 0-14.119196c-4.412249-13.236746-24.267368 0-29.562067 6.177148a44.122488 44.122488 0 0 0-13.236746 55.594335 38.386565 38.386565 0 0 0 52.505761 3.529799c15.001646-9.706947 33.091866-30.885742 19.855119-48.975962S413.606851 88.244976 397.722756 99.275598c-5.294699 3.529799-16.325321 15.001646-10.589398 22.061244s19.413895 0 24.267369-4.853473c-6.177148 4.412249-5.294699 3.529799 0 7.059598l3.088574 3.529799q10.148172 0 3.088574-3.088574s-6.177148-6.618373-7.059598-8.824498a14.560421 14.560421 0 0 1 0-15.884096l-29.562067 6.177149v7.500823L414.048076 88.244976v10.148173c4.853474-8.383273 0-12.795522-9.265722-11.913072a37.504115 37.504115 0 0 0-24.708594 19.413895zM244.617722 190.609149A529.469858 529.469858 0 0 0 111.367807 220.612441c-7.942048 3.529799-20.737569 11.913072-21.178794 21.620019-7.942048 108.100096 34.415541 231.643063 44.122488 340.625609a3367.428297 3367.428297 0 0 1 15.001646 435.930183c0 5.294699 7.500823 5.735923 11.030622 4.853473 244.879809-68.831082 492.406968-55.15311 743.022701-34.856765 11.030622 0 32.650641-14.119196 30.003292-26.914718q-75.89068-406.809341-116.042144-818.472155a6.618373 6.618373 0 0 0-7.059598-5.294699 594.77114 594.77114 0 0 0-132.367465 17.20777c-13.236746 3.088574-38.82779 37.06289-15.001645 31.326967 149.13401-36.18044 132.367464 132.367464 146.045435 231.201838s25.149818 189.285474 39.71024 283.266374c9.706947 62.653933 66.624957 202.963446 16.32532 250.174508-26.473493 24.708593-264.734929-14.119196-315.034565-13.236747a1544.287086 1544.287086 0 0 0-220.612441 18.97267c-54.711885 8.824498-101.040498 40.151464-139.427063-22.502469-13.236746-21.620019 0-98.393149 0-124.866641a3113.282765 3113.282765 0 0 0-23.384918-308.857417C153.284171 399.308518 94.160037 243.99736 229.616076 220.612441c13.677971 0 39.269014-35.297991 15.001646-31.326967z" p-id="1575" fill="#2c2c2c"></path><path d="M232.263425 427.988135A3806.447054 3806.447054 0 0 0 662.457685 378.129724c13.677971-2.206124 39.269014-35.297991 15.001646-31.326967A3735.409848 3735.409848 0 0 1 255.648344 397.102393c-13.236746 0-41.475139 33.091866-23.384919 32.209417zM243.735272 545.353954q101.922948-17.20777 205.16957-26.032268c13.236746 0 41.475139-33.533091 23.384919-32.209417q-107.217646 8.824498-213.552843 26.914718c-13.677971 2.206124-39.269014 35.297991-15.001646 31.326967zM495.233454 495.054317a557.267026 557.267026 0 0 0 116.042144-24.708593c15.442871-4.853474 33.533091-37.504115 6.177149-28.679617a514.909437 514.909437 0 0 1-106.776422 22.061244c-13.677971 0-39.710239 33.974316-15.001646 31.326966zM234.028325 646.835676c132.367464 15.001646 261.20513-31.326967 386.954221-62.653933 13.236746-3.088574 38.386565-37.06289 15.001646-31.326966-123.101742 30.885742-251.056958 76.331905-379.012174 61.771483-13.677971 0-44.122488 30.003292-23.384918 32.209416zM260.060593 761.112921l118.689493-5.735924a35.297991 35.297991 0 0 0 26.032268-15.44287c3.088574-4.853474 7.942048-17.20777-3.088574-16.766546l-118.689494 5.735923a35.297991 35.297991 0 0 0-26.032268 15.442871c-3.088574 4.853474-7.942048 17.20777 3.088575 16.766546zM439.639119 726.256155a2483.654859 2483.654859 0 0 1 258.999006-48.534737c13.677971 0 39.710239-34.415541 15.001646-31.326966a2483.654859 2483.654859 0 0 0-258.999006 48.534737c-13.236746 3.088574-38.82779 37.06289-15.001646 31.326966zM271.53244 887.303237L558.769837 838.327275c13.677971-2.206124 39.269014-35.297991 15.001646-31.326966L286.534085 855.97627c-13.677971 2.206124-39.269014 35.297991-15.001645 31.326967zM609.951924 829.944002h34.856765a35.297991 35.297991 0 0 0 26.032268-15.44287c3.529799-5.294699 7.500823-16.766546-3.088574-16.766546h-34.856765a35.297991 35.297991 0 0 0-26.032268 15.442871c-3.529799 5.294699-7.500823 16.766546 3.088574 16.766545zM687.166278 829.944002h34.856766a35.297991 35.297991 0 0 0 26.032268-15.44287c3.529799-5.294699 7.500823-16.766546-3.088574-16.766546h-34.856766a35.297991 35.297991 0 0 0-26.032268 15.442871c-3.529799 5.294699-7.500823 16.766546 3.088574 16.766545z" p-id="1576" fill="#2c2c2c"></path></svg>