<?xml version="1.0" standalone="no"?><!DOCTYPE svg PUBLIC "-//W3C//DTD SVG 1.1//EN" "http://www.w3.org/Graphics/SVG/1.1/DTD/svg11.dtd"><svg t="1627568712328" class="icon" viewBox="0 0 1024 1024" version="1.1" xmlns="http://www.w3.org/2000/svg" p-id="4048" xmlns:xlink="http://www.w3.org/1999/xlink" width="200" height="200"><defs><style type="text/css">@font-face { font-family: feedback-iconfont; src: url("//at.alicdn.com/t/font_1031158_1uhr8ri0pk5.eot?#iefix") format("embedded-opentype"), url("//at.alicdn.com/t/font_1031158_1uhr8ri0pk5.woff2") format("woff2"), url("//at.alicdn.com/t/font_1031158_1uhr8ri0pk5.woff") format("woff"), url("//at.alicdn.com/t/font_1031158_1uhr8ri0pk5.ttf") format("truetype"), url("//at.alicdn.com/t/font_1031158_1uhr8ri0pk5.svg#iconfont") format("svg"); }
</style></defs><path d="M603.788598 316.814796c-85.279891 15.77678-225.991712-42.639946-273.322052 66.518315-42.639946 95.939878 45.624742 238.357296 132.610231 276.306848A185.910163 185.910163 0 0 0 695.464481 591.842445a155.209402 155.209402 0 0 0-103.188669-237.078097c-14.071182-2.984796-42.639946 26.863166-28.995163 29.847962a142.417418 142.417418 0 0 1 121.097446 144.123016 130.478234 130.478234 0 0 1-152.651006 110.863859 186.336562 186.336562 0 0 1-105.320665-59.269525c-32.832758-35.817554-89.970285-137.727024-67.371114-189.321359 37.949552-81.015897 161.605394-31.12716 230.255706-43.919144 13.218383-2.558397 37.949552-34.538356 14.497582-30.274361z" p-id="4049" fill="#bfbfbf"></path><path d="M168.861152 226.418111L294.222592 174.823777c10.659986 0 28.142364-10.659986 28.995163-22.599171 8.10159-93.80788 36.243954-115.127853 132.183832-110.863859s99.351073 31.55356 100.203872 109.158261c0 2.984796 4.263995 5.116793 6.822391 5.116794a208.082935 208.082935 0 0 1 184.204565 85.279891c2.984796 4.263995 10.233587 2.131997 14.071183 0 85.279891-40.507948 121.097446-27.289565 164.16379 45.624742C955.568149 341.119565 976.888122 386.744307 908.664209 402.094687c-8.10159 0-29.421562 14.497582-25.157568 25.583968 19.187976 52.020734 62.254321 155.209402 18.761576 204.671739-4.263995 4.690394-11.512785 14.071182-3.837595 19.187975 110.01106 72.061508-17.482378 243.04769-127.919837 127.919837-8.527989-8.954389-26.010367 5.543193-30.700761 12.791984l-144.975815 98.924674c-8.527989 0-24.731168 11.939185-25.157568 22.172771-4.263995 85.279891 16.629579 66.091916-65.239117 69.076712-58.416726 0-122.376644 0-159.046997-42.639945-57.563927-67.371114 22.599171 8.954389-27.715965-95.087079-28.142364-57.990326-49.888736-32.406359-78.4575-109.158261-2.558397-6.822391-9.380788-5.116793-14.923981-3.411195-149.666209 46.90394-225.565312-147.534212-92.528682-150.519009 11.086386 0 31.12716-12.791984 28.995163-26.010366l-30.70076-202.113343a6.395992 6.395992 0 0 0-6.822392-5.116793c-96.366277 2.984796-39.655149-200.834144 14.923981-92.528682 5.543193 11.512785 42.639946-12.365584 33.685557-26.436766C138.160391 163.737391 78.464467 141.991019 38.809318 213.199728a377.789918 377.789918 0 0 0-11.086386 139.006223c20.467174 59.695924 184.630965 197.422948 14.923981 202.113342-10.659986 0-31.55356 12.791984-28.995163 26.010367 12.791984 70.35591 28.142364 138.153424 46.477541 206.803736 0 5.116793 5.969592 5.116793 10.659986 4.690394 117.68625-12.791984 259.250869 0 195.290951 195.717351 0 4.690394 2.131997 8.10159 6.395992 8.527989 92.528682 8.954389 205.098138 39.22875 296.347622 23.45197a35.391155 35.391155 0 0 0 25.157568-22.172772c30.274361-92.102283 134.742228-213.199728 217.463723-97.645475 5.969592 8.527989 23.45197-4.263995 27.289565-8.527989 57.137527-60.975122 110.01106-123.229443 161.178995-189.747758 2.131997-2.984796 5.969592-9.807187 2.558396-13.644783-54.152731-57.990326-108.305462-255.839674-17.908777-275.027649 10.659986-2.558397 29.421562-15.35038 24.304769-28.142364-20.893573-49.888736-47.33034-202.539742-111.290258-219.169321-13.218383-3.411196-29.847962 11.086386-42.639946 8.954389a77.178302 77.178302 0 0 1-100.203872 5.543193 442.602636 442.602636 0 0 0-35.817554-29.421563c39.22875 15.77678-122.803043-56.284728-89.117487-28.995163-38.375951-31.979959-19.614375-72.487908-45.198342-96.366277C534.285486-20.893573 389.736071 10.233587 328.334549 11.086386c-10.659986 0-28.142364 11.086386-28.995163 22.599171-10.233587 119.391848-76.325503 115.127853-151.798207 184.204565-21.319973 19.614375 6.822391 22.172772 21.319973 8.954389z" p-id="4050" fill="#bfbfbf"></path></svg>